# xmcd CD database file
#
# Track frame offsets:
#	150
#	14509
#	33367
#	48880
#	69023
#	86436
#	104846
#	125542
#	145947
#	165685
#	183475
#	200677
#	225073
#	251651
#	271961
#	290189
#	311684
#
# Disc length: 4424 seconds
#
# Revision: 2
# Processed by: cddbd v1.5.2PL0 Copyright (c) Steve Scherf et al.
# Submitted via: CDex 1.70beta2
#
DISCID=f1114611
DTITLE=Various Artist - スターチャイルド SELECTION II 音楽編[TV作品集] (DISC-02)
DYEAR=2005
DGENRE=Anime
TTITLE0=[ラブひな] OP - サクラサク - 林原めぐみ
TTITLE1=[ラブひな] ED - 君さえいれば - 林原めぐみ
TTITLE2=[遊戯王デュエルモンスターズ] OP - voice - CLOUD
TTITLE3=[遊戯王デュエルモンスターズ] ED - 元気のシャワー - 前田亜季
TTITLE4=[六門天外モンコレ☆ナイト] OP - Return to myself - 米倉千尋
TTITLE5=[六門天外モンコレ☆ナイト] ED - サンバdaバッチグー - バッチィ＆グーコ（氷上恭子、今井由香）
TTITLE6=[デ・ジ・キャラット サマースペシャル2000] OP - CUTIE - 奥井雅美
TTITLE7=[無敵王トライゼノン] OP - unsteady - 林原めぐみ
TTITLE8=[無敵王トライゼノン] ED - lost in you - 林原めぐみ
TTITLE9=[メダロット魂] OP - SUPER GUYS - 中村裕介
TTITLE10=[メダロット魂] ED - 年下のボク - 貝田由里子
TTITLE11=[テイルズ オブ エターニア] OP - 空にかける橋 - 奥井雅美
TTITLE12=[テイルズ オブ エターニア] ED - I'd love you to touch me - 奥井雅美
TTITLE13=[デ・ジ・キャラット クリスマススペシャル] OP - 女神になりたい～for a yours～ - 奥井雅美
TTITLE14=[爆転シュートベイブレード] OP - Fighting Spirits -SONG FOR BEYBLADE- - system-B
TTITLE15=[爆転シュートベイブレード] ED - CHEER SONG - system-B
TTITLE16=[学園戦記ムリョウ] OP - TAKE - KAKO
EXTD=YEAR: 2005
EXTT0=
EXTT1=
EXTT2=
EXTT3=
EXTT4=
EXTT5=
EXTT6=
EXTT7=
EXTT8=
EXTT9=
EXTT10=
EXTT11=
EXTT12=
EXTT13=
EXTT14=
EXTT15=
EXTT16=
PLAYORDER=
